<svg version="1.1" id="Layer_1" xmlns="http://www.w3.org/2000/svg" xmlns:xlink="http://www.w3.org/1999/xlink" x="0px" y="0px"
	 width="100%" viewBox="0 0 512 512" enable-background="new 0 0 512 512" xml:space="preserve">
<path fill="#000000" opacity="1.000000" stroke="none" 
	d="
M286.000000,513.000000 
	C192.022812,513.000000 98.545601,512.979492 5.068528,513.085144 
	C1.795423,513.088867 0.894715,512.634766 0.897218,509.070312 
	C1.015182,341.111359 1.016859,173.152328 0.891708,5.193420 
	C0.888907,1.434828 1.850453,0.913581 5.304635,0.915568 
	C173.096985,1.012110 340.889374,1.011540 508.681732,0.918693 
	C512.098999,0.916803 513.113953,1.383421 513.111023,5.179763 
	C512.982544,173.138687 512.985168,341.097717 513.101257,509.056671 
	C513.103699,512.593262 512.247681,513.092896 508.945099,513.087830 
	C434.796844,512.973389 360.648407,513.000000 286.000000,513.000000 
z"/>
<path fill="#F4644D" opacity="1.000000" stroke="none" 
	d="
M404.648193,157.507584 
	C425.669983,157.110733 446.324463,157.024658 466.978943,157.026642 
	C471.123962,157.027039 474.834534,160.893402 474.992767,165.048019 
	C475.037109,166.212524 474.999939,167.380127 474.999969,168.546310 
	C475.000214,264.339905 475.000488,360.133514 475.003021,456.386047 
	C473.913177,458.997833 471.857178,459.116730 469.865173,459.134918 
	C449.633392,459.319702 429.401276,459.357941 409.169586,459.118500 
	C407.843750,459.102783 406.512665,458.975800 404.932678,457.935425 
	C402.490662,455.050507 402.782898,451.977264 402.772522,449.010284 
	C402.707458,430.374237 402.743500,411.738007 402.743164,393.101837 
	C402.741730,318.057922 402.724060,243.014008 402.791351,167.970169 
	C402.794403,164.574493 401.886841,160.937225 404.648193,157.507584 
z"/>
<path fill="#8BC932" opacity="1.000000" stroke="none" 
	d="
M173.653748,197.512909 
	C194.660889,197.115509 215.298950,197.016403 235.936920,197.030762 
	C240.939774,197.034256 244.538651,200.849289 244.980408,206.234467 
	C245.088928,207.557373 244.999817,208.896576 244.999832,210.228287 
	C245.000519,292.128754 245.001038,374.029205 245.005341,456.388794 
	C243.914886,458.999115 241.858627,459.117340 239.866638,459.135162 
	C219.301941,459.319489 198.736893,459.358002 178.172256,459.118683 
	C176.846405,459.103241 175.515137,458.976471 173.934570,457.936981 
	C171.290771,454.727783 171.778534,451.297028 171.772552,448.016907 
	C171.716431,417.241699 171.743271,386.466370 171.742844,355.691101 
	C171.742142,306.284302 171.717789,256.877472 171.790298,207.470764 
	C171.795044,204.237854 170.950790,200.767456 173.653748,197.512909 
z"/>
<path fill="#FFC443" opacity="1.000000" stroke="none" 
	d="
M289.638306,247.508362 
	C310.321350,247.110001 330.638397,247.008057 350.955261,247.031265 
	C356.474792,247.037582 359.991516,251.072250 359.993317,257.053223 
	C360.006195,299.693604 360.000214,342.333984 360.000305,384.974365 
	C360.000366,408.626434 360.000610,432.278534 360.002441,456.389771 
	C358.909271,458.998932 356.853577,459.117035 354.861877,459.135162 
	C334.632538,459.319427 314.402802,459.357697 294.173553,459.118744 
	C292.847931,459.103088 291.516937,458.976654 289.936096,457.938110 
	C287.112030,454.400360 287.779877,450.620392 287.775940,447.025543 
	C287.722687,398.472778 287.742371,349.919922 287.743622,301.367096 
	C287.744019,286.069641 287.688660,270.771912 287.790894,255.474945 
	C287.808197,252.883362 287.259552,250.093109 289.638306,247.508362 
z"/>
<path fill="#54C1ED" opacity="1.000000" stroke="none" 
	d="
M68.645721,327.508545 
	C86.464195,327.110687 103.915115,326.997131 121.365654,327.040466 
	C125.910278,327.051758 128.995575,330.997467 128.996429,336.269592 
	C129.002777,375.168457 128.999939,414.067291 129.000092,452.966156 
	C129.000092,453.963562 129.001297,454.960968 129.008942,456.419495 
	C128.023911,458.797028 126.207581,459.082794 124.353554,459.107239 
	C107.128464,459.334412 89.902985,459.381226 72.678040,459.084717 
	C71.512039,459.064667 70.367157,458.875183 68.939125,457.939697 
	C66.837166,455.537018 66.793159,453.024536 66.788498,450.529877 
	C66.715912,411.675568 66.706673,372.821198 66.806564,333.966980 
	C66.812004,331.852814 66.557434,329.591034 68.645721,327.508545 
z"/>
<path fill="#84828E" opacity="1.000000" stroke="none" 
	d="
M68.600006,456.514587 
	C88.682953,456.880280 108.382561,456.921875 128.549057,456.922058 
	C137.030853,456.910278 145.045776,456.939972 153.524750,456.905701 
	C160.297470,453.421570 166.746109,454.185181 173.623474,456.519562 
	C197.366470,456.877014 220.722549,456.912598 244.543884,456.898041 
	C252.695328,456.887329 260.381500,456.926758 268.531189,456.895020 
	C275.635498,453.384644 282.408600,454.156738 289.606720,456.510651 
	C313.019135,456.874908 336.046082,456.916931 359.538574,456.903961 
	C368.025513,456.889008 376.046906,456.929016 384.532715,456.903625 
	C391.297546,453.418030 397.739380,454.194824 404.607635,456.513062 
	C428.020264,456.874329 451.047577,456.912811 474.540070,456.898132 
	C479.501526,456.896973 483.998505,456.915924 488.493866,457.009918 
	C493.280792,457.109985 495.036774,459.242523 495.000000,464.784302 
	C494.966248,469.872406 493.142914,471.875397 488.425232,471.996857 
	C487.759125,472.014038 487.092194,471.999939 486.425659,471.999939 
	C333.453247,472.000000 180.480820,472.000397 27.508398,471.999115 
	C20.319542,471.999054 18.751368,470.336792 18.987677,463.218231 
	C19.130821,458.906189 21.348564,456.958099 25.572477,456.991364 
	C29.737946,457.024200 33.904022,456.979950 38.533318,456.905396 
	C39.889839,456.130554 40.666683,455.162140 41.905853,455.101532 
	C50.273788,454.692200 58.644764,454.233307 66.994614,455.382538 
	C67.494423,455.451324 67.824036,455.896393 68.600006,456.514587 
z"/>
<path fill="#E8533A" opacity="1.000000" stroke="none" 
	d="
M404.994781,456.379181 
	C398.637421,456.873657 392.281891,456.911530 385.461731,456.893799 
	C384.997955,360.398773 384.998596,263.959320 384.999847,167.519897 
	C384.999939,159.797852 387.819763,156.997620 395.596069,157.001038 
	C398.427521,157.002274 401.258972,157.018982 404.552979,157.097229 
	C405.009186,256.751404 405.002899,356.336975 404.994781,456.379181 
z"/>
<path fill="#80B524" opacity="1.000000" stroke="none" 
	d="
M174.009140,456.385162 
	C167.646378,456.876099 161.282349,456.910797 154.453568,456.893616 
	C153.991211,374.080444 154.087036,291.318878 153.831100,208.558380 
	C153.808945,201.393387 158.618774,195.864609 165.615173,196.942032 
	C168.056747,197.318024 170.601547,197.023697 173.561035,197.104218 
	C174.017868,283.424927 174.012878,369.676910 174.009140,456.385162 
z"/>
<path fill="#FCB831" opacity="1.000000" stroke="none" 
	d="
M289.993530,456.375793 
	C283.302734,456.872162 276.613281,456.911377 269.459290,456.887238 
	C268.994171,391.084961 268.993256,325.346100 268.993652,259.607208 
	C268.993683,250.060303 272.055420,246.998535 281.592834,247.001373 
	C284.089203,247.002121 286.585541,247.012970 289.543152,247.092041 
	C290.001251,316.749481 289.998077,386.334076 289.993530,456.375793 
z"/>
<path fill="#17AFDE" opacity="1.000000" stroke="none" 
	d="
M68.987595,456.382050 
	C59.297878,456.876495 49.612415,456.914276 39.461876,456.896667 
	C38.997673,416.871552 38.998558,376.901886 38.999397,336.932190 
	C38.999546,329.987549 42.042332,326.993500 49.099228,327.000153 
	C55.427685,327.006134 61.756145,327.016052 68.549011,327.094971 
	C69.006226,370.085632 68.999031,413.005524 68.987595,456.382050 
z"/>
<path fill="#84828E" opacity="1.000000" stroke="none" 
	d="
M191.936676,128.543732 
	C180.330658,140.950958 169.433456,153.514267 158.406754,165.966766 
	C152.629807,172.490662 146.767883,178.953583 140.968018,185.469055 
	C128.140015,199.879868 115.093735,214.096405 101.985672,228.699768 
	C101.224678,229.301056 100.480576,229.525192 99.961731,229.141998 
	C95.995651,226.212845 91.294067,224.154373 88.727600,219.326447 
	C98.989571,207.717590 109.164017,196.485977 119.283989,185.205505 
	C133.433624,169.433258 147.638718,153.709015 161.623856,137.791824 
	C167.601089,130.988800 173.424698,124.058243 180.001404,117.357803 
	C180.477493,116.923134 180.892441,116.752953 181.098755,116.925034 
	C185.163559,120.315414 189.448395,123.497551 191.936676,128.543732 
z"/>
<path fill="#84828E" opacity="1.000000" stroke="none" 
	d="
M422.539246,88.439293 
	C414.086914,95.880974 405.748322,103.036690 397.257965,110.007545 
	C387.375397,118.121452 377.491455,126.244148 367.366028,134.048981 
	C356.745422,142.235504 347.200684,151.779358 335.458557,159.020172 
	C330.908417,155.213104 329.184357,150.228455 328.742310,144.466827 
	C356.136414,122.148750 383.276642,100.131477 410.727203,77.951538 
	C416.639618,79.248093 419.674194,83.590836 422.539246,88.439293 
z"/>
<path fill="#84828E" opacity="1.000000" stroke="none" 
	d="
M294.345703,159.154053 
	C284.058990,154.418289 274.155884,149.776352 264.290741,145.055023 
	C248.376480,137.438644 232.487259,129.769958 216.253036,121.976471 
	C214.344131,116.280708 216.689392,111.393295 218.913635,106.244843 
	C224.209732,108.206543 229.181259,110.196144 234.000854,112.503143 
	C255.843323,122.958504 277.642914,133.503448 299.833221,144.093033 
	C301.188354,150.200974 297.858032,154.666931 294.345703,159.154053 
z"/>
<path fill="#54C1ED" opacity="1.000000" stroke="none" 
	d="
M88.399368,218.976929 
	C93.096771,222.066742 98.047676,224.279694 101.541656,228.863800 
	C106.257179,238.026993 104.776367,247.808517 97.970352,254.534424 
	C91.963669,260.470428 82.462280,261.788513 74.463387,257.795441 
	C66.312683,253.726547 61.800163,243.746475 64.139748,233.932297 
	C66.022751,226.033356 74.362640,218.698456 83.472450,218.992462 
	C84.966408,219.040680 86.463600,218.988586 88.399368,218.976929 
z"/>
<path fill="#F4644D" opacity="1.000000" stroke="none" 
	d="
M422.869141,88.885025 
	C418.439972,85.695641 414.264587,82.709740 411.325745,77.977036 
	C405.907867,60.806984 416.665649,48.345505 431.472473,48.944675 
	C441.011963,49.330704 449.946320,59.106571 450.351471,68.490646 
	C450.908447,81.391106 439.444489,91.370651 427.958923,90.088531 
	C426.280579,89.901184 424.862976,89.112984 422.869141,88.885025 
z"/>
<path fill="#FFC443" opacity="1.000000" stroke="none" 
	d="
M293.969025,159.500641 
	C295.345947,154.071884 297.112122,149.206787 300.167297,144.527161 
	C306.679993,140.158951 313.301514,137.338242 321.214874,139.912506 
	C323.934052,140.797089 325.917969,142.633301 328.666565,144.008209 
	C331.126770,148.811127 334.480896,152.952377 334.967102,158.692078 
	C335.512817,170.837387 326.719604,179.160965 316.313232,179.996964 
	C306.645355,180.773651 295.216461,174.355484 293.969025,159.500641 
z"/>
<path fill="#8BC932" opacity="1.000000" stroke="none" 
	d="
M219.181854,105.683395 
	C219.351501,111.328270 218.657257,116.425591 215.981049,121.467834 
	C209.629974,129.011520 201.974030,131.738068 192.189728,128.911743 
	C187.622208,125.473846 183.046143,122.539238 180.420761,117.261200 
	C177.366089,108.537300 179.511917,99.110367 185.442627,94.083839 
	C192.076736,88.461151 202.208801,87.032822 209.491150,91.872261 
	C214.413986,95.143692 218.488602,98.952538 219.181854,105.683395 
z"/>
</svg>